<svg width="24" height="24" viewBox="0 0 32 32" xmlns="http://www.w3.org/2000/svg"><path d="M 23.326 28.341 C 23.121 28.341 22.919 28.28 22.743 28.163 L 16.144 23.686 L 12.605 26.233 C 12.013 26.658 11.179 26.359 10.992 25.654 L 9.217 18.921 L 2.866 16.491 C 2.119 16.206 1.963 15.218 2.584 14.715 C 2.664 14.648 2.756 14.594 2.853 14.557 L 26.998 4.948 C 27.734 4.636 28.533 5.239 28.436 6.033 C 28.431 6.059 28.428 6.087 28.422 6.114 L 24.348 27.498 C 24.254 27.986 23.826 28.341 23.326 28.341 Z M 16.723 21.568 L 22.604 25.557 L 25.773 8.917 L 14.319 19.938 L 16.696 21.55 C 16.706 21.556 16.714 21.562 16.723 21.568 Z M 11.83 20.683 L 12.619 23.664 L 14.313 22.444 L 12.092 20.937 C 11.991 20.87 11.902 20.782 11.83 20.683 Z M 6.096 15.501 L 10.456 17.169 C 10.768 17.289 11.003 17.551 11.089 17.874 L 11.642 19.97 C 11.668 19.727 11.78 19.5 11.956 19.329 L 22.868 8.828 L 6.096 15.501 Z"></path></svg>