<svg width="34" height="34" xmlns="http://www.w3.org/2000/svg">
 <!-- Created with SVG Editor - http://github.com/mzalive/SVG Editor/ -->

 <g>
  <title>background</title>
  <rect id="canvas_background" height="36" width="36" y="-1" x="-1"/>
 </g>
 <g>
  <title>Layer 1</title>
  <g stroke="null" id="svg_5">
   <path  d="m29.713657,7.125055l-25.109646,0c-1.297855,0 -2.354029,1.145894 -2.354029,2.553998l0,15.323987c0,1.408104 1.056174,2.553998 2.354029,2.553998l25.109646,0c1.297855,0 2.354029,-1.145894 2.354029,-2.553998l0,-15.323987c0,-1.408104 -1.056174,-2.553998 -2.354029,-2.553998zm0,1.702665c0.047081,0 0.091022,0.005108 0.136534,0.013621l-11.820366,8.549082c-0.455112,0.328614 -1.2853,0.328614 -1.740412,0l-11.820366,-8.549082a0.77526,0.841117 0 0 1 0.136534,-0.013621l25.109646,0l-0.001569,0zm0,17.026652l-25.109646,0a0.784676,0.851333 0 0 1 -0.784676,-0.851333l0,-14.58503l11.599087,8.389031c0.488069,0.352452 1.114241,0.529529 1.740412,0.529529s1.252344,-0.177077 1.740412,-0.529529l11.599087,-8.389031l0,14.58503a0.784676,0.851333 0 0 1 -0.784676,0.851333z" fill="#fff"/>
  </g>
 </g>
</svg>